<?xml version="1.0" standalone="no"?>
<!DOCTYPE svg PUBLIC "-//W3C//DTD SVG 1.1//EN" "http://www.w3.org/Graphics/SVG/1.1/DTD/svg11.dtd" >
<svg xmlns="http://www.w3.org/2000/svg">
<metadata></metadata>
<defs>
<font id="alternate_gothic_no.2regular" horiz-adv-x="729" >
<font-face units-per-em="2048" ascent="1638" descent="-410" />
<missing-glyph horiz-adv-x="415" />
<glyph horiz-adv-x="0" />
<glyph horiz-adv-x="682" />
<glyph unicode=" "  horiz-adv-x="415" />
<glyph unicode="&#x09;" horiz-adv-x="415" />
<glyph unicode="&#xa0;" horiz-adv-x="415" />
<glyph unicode="!" horiz-adv-x="440" d="M104 1446h230l-47 -1028h-135zM113 0v227h213v-227h-213z" />
<glyph unicode="&#x22;" horiz-adv-x="643" d="M86 879v557h164v-557h-164zM395 879v557h164v-557h-164z" />
<glyph unicode="#" horiz-adv-x="1574" d="M70 428l61 172h297l90 252h-315l61 172h316l155 436h191l-154 -436h250l156 436h190l-154 -436h291l-59 -172h-293l-90 -252h309l-61 -172h-307l-156 -434h-191l156 434h-252l-158 -434h-190l156 434h-299zM618 598h256l91 254h-256z" />
<glyph unicode="$" horiz-adv-x="831" d="M68 184l149 135q21 -55 53 -89t80 -56v479q-137 100 -203.5 207t-66.5 234q0 144 76 249t194 130v176h121v-174q78 -10 137 -49.5t111 -114.5l-131 -133q-46 79 -117 100v-440q155 -113 225 -224t70 -264q0 -156 -82.5 -262t-212.5 -121v-172h-121v174 q-103 19 -175.5 74.5t-106.5 140.5zM274 1110q0 -96 76 -178v338q-43 -27 -59.5 -63.5t-16.5 -96.5zM471 172q41 14 67.5 68t26.5 129q0 117 -94 202v-399z" />
<glyph unicode="%" horiz-adv-x="1060" d="M23 973v260q0 114 59 178t166 64q99 0 158 -65t59 -181v-260q0 -127 -58 -194.5t-163 -67.5q-108 0 -164.5 67.5t-56.5 198.5zM109 0l653 1446h176l-653 -1446h-176zM178 932q0 -41 19.5 -64.5t46.5 -23.5q63 0 63 88v332q0 34 -17 54.5t-46 20.5q-27 0 -46.5 -21 t-19.5 -54v-332zM594 236v260q0 114 60 177.5t167 63.5q99 0 157 -64.5t58 -180.5v-261q0 -128 -58 -195t-163 -67q-108 0 -164.5 68t-56.5 199zM752 195q0 -41 18.5 -66t44.5 -25q31 0 48.5 23.5t17.5 67.5v329q0 34 -18.5 56t-47.5 22q-27 0 -45 -21.5t-18 -54.5v-331z " />
<glyph unicode="&#x26;" horiz-adv-x="903" d="M51 313q0 102 42.5 199.5t129.5 206.5q-100 230 -100 414q0 154 78.5 248t201.5 94q115 0 184.5 -81.5t69.5 -222.5q0 -60 -13.5 -115.5t-45 -115.5t-62 -106.5t-85.5 -122.5q64 -138 149 -273q50 95 78 246l186 -49q-21 -181 -131 -367q46 -64 111 -84v-219 q-135 11 -234 123q-101 -119 -252 -119q-137 0 -222 94.5t-85 249.5zM254 334q0 -64 34 -101.5t87 -37.5q65 0 104 57q-77 92 -164 270q-61 -101 -61 -188zM305 1145q0 -124 60 -256q112 165 112 291q0 66 -24 104.5t-60 38.5q-35 0 -61.5 -47t-26.5 -131z" />
<glyph unicode="'" horiz-adv-x="333" d="M86 879v557h164v-557h-164z" />
<glyph unicode="(" horiz-adv-x="563" d="M102 668q0 429 236 807h192q-223 -363 -223 -797t230 -809l-142 -86q-293 430 -293 885z" />
<glyph unicode=")" horiz-adv-x="563" d="M27 -131q231 377 231 809q0 431 -225 797h194q234 -375 234 -807q0 -455 -293 -885z" />
<glyph unicode="*" horiz-adv-x="788" d="M61 1145l50 151l245 -127l-37 277h150l-37 -277l246 127l49 -151l-272 -45l196 -197l-129 -96l-129 248l-127 -248l-129 96l197 197z" />
<glyph unicode="+" horiz-adv-x="1705" d="M254 528v166h514v527h170v-527h514v-166h-514v-528h-170v528h-514z" />
<glyph unicode="," horiz-adv-x="440" d="M115 0v227h213v-227l-115 -256h-98l73 256h-73z" />
<glyph unicode="-" horiz-adv-x="634" d="M80 457v151h475v-151h-475z" />
<glyph unicode="." horiz-adv-x="440" d="M115 0v227h213v-227h-213z" />
<glyph unicode="/" horiz-adv-x="499" d="M-154 -190l586 1665h162l-586 -1665h-162z" />
<glyph unicode="0" horiz-adv-x="831" d="M84 371v741q0 171 89.5 268t248.5 97q149 0 238.5 -99t89.5 -272v-741q0 -191 -87.5 -293.5t-246.5 -102.5q-161 0 -246.5 102.5t-85.5 299.5zM301 309q0 -63 33.5 -99t85.5 -36q51 0 80.5 35t29.5 100v846q0 51 -31 83t-83 32q-48 0 -81.5 -31.5t-33.5 -81.5v-848z" />
<glyph unicode="1" horiz-adv-x="530" d="M-10 1122v146q170 61 248 178h149v-1446h-221v1122h-176z" />
<glyph unicode="2" horiz-adv-x="808" d="M61 0v209q455 629 455 897q0 83 -27.5 128.5t-72.5 45.5q-64 0 -89.5 -48t-27.5 -153l-2 -53h-217v27q0 202 89 312t249 110q137 0 221 -92.5t84 -254.5q0 -95 -27.5 -196t-89.5 -222t-128.5 -229t-176.5 -272h404v-209h-644z" />
<glyph unicode="3" horiz-adv-x="761" d="M57 381v37h211v-60q0 -93 25 -137.5t80 -44.5q64 0 91.5 50t27.5 157q0 145 -39.5 205.5t-145.5 60.5h-28v203h34q87 0 122.5 54.5t35.5 170.5q0 97 -22 143t-72 46q-56 0 -80.5 -37.5t-24.5 -120.5q0 -35 2 -55h-211v12q0 194 84 301t230 107q291 0 291 -410 q0 -123 -29 -197.5t-96 -113.5q86 -41 118.5 -120t32.5 -222q0 -216 -80 -327.5t-229 -111.5q-153 0 -240.5 106t-87.5 304z" />
<glyph unicode="4" horiz-adv-x="817" d="M51 352v191l371 903h209v-903h135v-191h-135v-352h-209v352h-371zM242 543h180v528z" />
<glyph unicode="5" horiz-adv-x="786" d="M84 360v43h201v-73q0 -164 114 -164q48 0 75.5 37t27.5 106v369q0 61 -22 90t-72 29q-88 0 -123 -117l-183 8l25 758h545l8 -209h-377l-18 -340q98 94 200 94q103 0 161.5 -77.5t58.5 -227.5v-367q0 -163 -86.5 -256.5t-233.5 -93.5q-148 0 -224.5 99t-76.5 292z" />
<glyph unicode="6" horiz-adv-x="831" d="M90 371v741q0 171 90.5 268t249.5 97q149 0 238.5 -99.5t89.5 -271.5v-45h-219v94q0 51 -31.5 83t-83.5 32q-49 0 -82 -31t-33 -82v-356q86 92 205 92q114 0 179 -72.5t65 -208.5v-247q0 -190 -88.5 -293t-247.5 -103q-161 0 -246.5 102.5t-85.5 299.5zM309 309 q0 -63 33.5 -99t85.5 -36q51 0 81 35t30 100v281q0 54 -26.5 83t-70.5 29q-78 0 -133 -94v-299z" />
<glyph unicode="7" horiz-adv-x="649" d="M12 1237v209h606v-158l-270 -1288h-215l266 1237h-387z" />
<glyph unicode="8" horiz-adv-x="761" d="M59 408q0 269 144 362q-121 85 -121 328q0 185 77 281t224 96q143 0 220 -96t77 -279q0 -124 -28 -203.5t-91 -128.5q141 -74 141 -379q0 -205 -82.5 -312.5t-236.5 -107.5q-161 0 -242.5 111t-81.5 328zM268 432q0 -137 25 -197.5t94 -60.5q60 0 83.5 55.5t23.5 178.5 q0 127 -23 184t-84 57q-68 0 -93.5 -51t-25.5 -166zM281 1090q0 -115 21.5 -163t82.5 -48q54 0 75 48t21 160q0 117 -21 165t-79 48q-59 0 -79.5 -49t-20.5 -161z" />
<glyph unicode="9" horiz-adv-x="831" d="M63 1010q0 467 345 467q161 0 246 -102.5t85 -299.5v-741q0 -171 -90.5 -268t-249.5 -97q-149 0 -238 99.5t-89 271.5v45h219v-96q0 -51 31.5 -83t83.5 -32q48 0 81 32t33 83v356q-79 -82 -174 -82q-283 0 -283 447zM291 920q0 -170 110 -170q77 0 119 88v299 q0 64 -33 98.5t-86 34.5t-81.5 -37.5t-28.5 -110.5v-202z" />
<glyph unicode=":" horiz-adv-x="440" d="M115 0v227h213v-227h-213zM115 408v227h213v-227h-213z" />
<glyph unicode=";" horiz-adv-x="440" d="M115 0v227h213v-227l-115 -256h-98l73 256h-73zM115 408v227h213v-227h-213z" />
<glyph unicode="&#x3c;" horiz-adv-x="1705" d="M264 530v160l1178 486v-185l-934 -381l934 -381v-182z" />
<glyph unicode="=" horiz-adv-x="1705" d="M254 322v165h1198v-165h-1198zM254 733v168h1198v-168h-1198z" />
<glyph unicode="&#x3e;" horiz-adv-x="1705" d="M264 47v182l934 381l-934 381v185l1178 -486v-160z" />
<glyph unicode="?" horiz-adv-x="630" d="M6 1198q80 277 307 277q134 0 211.5 -75.5t77.5 -203.5q0 -78 -32.5 -155.5t-83.5 -163t-70 -134.5q-41 -101 -41 -243q0 -47 2 -74h-174q0 10 -1 29.5t-1 29.5q0 207 63 375q21 57 57.5 126t58 116t21.5 82q0 43 -23 69.5t-61 26.5q-39 0 -71.5 -37.5t-65.5 -116.5z M182 0v238h215v-238h-215z" />
<glyph unicode="@" horiz-adv-x="2048" d="M98 522q0 333 205 586q147 179 353 272t460 93q168 0 316.5 -46t253.5 -127q264 -203 264 -536q0 -163 -65 -302.5t-185 -236.5q-139 -112 -318 -112q-106 0 -157 40.5t-51 125.5v4q-55 -87 -128.5 -127.5t-175.5 -40.5q-152 0 -232.5 86.5t-80.5 249.5q0 156 64.5 284.5 t172.5 200.5t234 72q173 0 248 -142l55 107h154l-148 -586q-8 -40 -8 -49q0 -38 26.5 -61t69.5 -23q49 0 105.5 29.5t107.5 85.5q71 76 109.5 177t38.5 216q0 251 -185.5 410t-490.5 159q-276 0 -471 -125q-182 -114 -279.5 -291.5t-97.5 -394.5q0 -312 209.5 -499 t558.5 -187q167 0 325 49t290 142l67 -99q-300 -227 -674 -227q-386 0 -632 190q-308 235 -308 633zM741 444q0 -99 45 -151.5t129 -52.5q89 0 163 66t100 173l55 228q-13 85 -61 130.5t-123 45.5q-127 0 -217.5 -128.5t-90.5 -310.5z" />
<glyph unicode="A" horiz-adv-x="790" d="M12 0l238 1446h291l237 -1446h-229l-45 313h-225l-48 -313h-219zM307 518h170l-76 604h-14z" />
<glyph unicode="B" horiz-adv-x="868" d="M115 0v1446h295q179 0 275.5 -99t96.5 -278q0 -214 -155 -330q89 -51 131.5 -136.5t42.5 -215.5q0 -199 -87.5 -293t-269.5 -94h-329zM336 209h96q72 0 105.5 50.5t33.5 156.5q0 119 -37 169t-126 50h-72v-426zM336 844h90q61 0 95 51t34 147q0 104 -35.5 149.5 t-111.5 45.5h-72v-393z" />
<glyph unicode="C" horiz-adv-x="849" d="M88 371v741q0 170 92.5 267.5t257.5 97.5q154 0 245 -99t91 -272v-139h-229v159q0 150 -115 150t-115 -150v-807q0 -151 115 -151t115 151v197h229v-151q0 -191 -90 -293.5t-254 -102.5q-169 0 -255.5 102t-86.5 300z" />
<glyph unicode="D" horiz-adv-x="880" d="M115 0v1446h317q185 0 273 -97.5t88 -299.5v-646q0 -209 -83 -306t-268 -97h-327zM336 213h113q61 0 88.5 38t27.5 114v696q0 89 -43 130.5t-135 41.5h-51v-1020z" />
<glyph unicode="E" horiz-adv-x="753" d="M115 0v1446h581v-209h-358v-379h258v-209h-258v-432h358v-217h-581z" />
<glyph unicode="F" horiz-adv-x="684" d="M115 0v1446h581v-209h-358v-379h258v-209h-258v-649h-223z" />
<glyph unicode="G" horiz-adv-x="851" d="M88 371v741q0 170 92.5 267.5t257.5 97.5q158 0 240 -93.5t82 -277.5v-133h-215v153q0 150 -115 150t-115 -150v-807q0 -151 115 -151t115 151v226h-135v184h350v-729h-107l-43 100q-71 -131 -215 -131q-149 0 -228 103t-79 299z" />
<glyph unicode="H" horiz-adv-x="897" d="M115 0v1446h221v-590h223v590h223v-1446h-223v647h-223v-647h-221z" />
<glyph unicode="I" horiz-adv-x="450" d="M115 0v1446h227v-1446h-227z" />
<glyph unicode="J" horiz-adv-x="473" d="M-12 0v223q40 -4 45 -4q57 0 87 31t30 90v1106h223v-1063q0 -192 -63 -287.5t-197 -95.5h-125z" />
<glyph unicode="K" horiz-adv-x="839" d="M115 0v1446h223v-610q18 65 31 94l221 516h221l-248 -494l277 -952h-232l-188 727l-82 -164v-563h-223z" />
<glyph unicode="L" horiz-adv-x="692" d="M115 0v1446h221v-1237h346v-209h-567z" />
<glyph unicode="M" horiz-adv-x="1148" d="M115 0v1446h297l145 -801q18 -99 18 -217q0 92 21 215l139 803h301v-1446h-209v913q0 72 17 252q-27 -164 -35 -204l-182 -961h-111l-174 961q-34 201 -35 204q15 -163 15 -252v-913h-207z" />
<glyph unicode="N" horiz-adv-x="937" d="M115 0v1446h200l283 -864q16 -47 43 -154q-25 142 -25 195v823h209v-1446h-209l-272 799q-38 116 -47 157q25 -159 25 -200v-756h-207z" />
<glyph unicode="O" horiz-adv-x="862" d="M88 371v741q0 170 92.5 267.5t257.5 97.5q154 0 245 -99t91 -272v-741q0 -191 -90 -293.5t-254 -102.5q-166 0 -254 102.5t-88 299.5zM315 319q0 -151 115 -151t115 151v807q0 150 -115 150t-115 -150v-807z" />
<glyph unicode="P" horiz-adv-x="829" d="M113 0v1446h327q182 0 265 -99t83 -319q0 -209 -81.5 -324.5t-217.5 -115.5h-153v-588h-223zM336 795h88q81 0 109 49.5t28 179.5q0 122 -30.5 167.5t-114.5 45.5h-80v-442z" />
<glyph unicode="Q" horiz-adv-x="860" d="M88 371v741q0 170 92.5 267.5t257.5 97.5q154 0 245 -99t91 -272v-741q0 -127 -31 -197q22 -45 82 -45h11v-221h-25q-152 0 -213 116q-83 -49 -182 -49q-154 0 -241 104t-87 298zM315 319q0 -153 115 -153t115 153v807q0 150 -115 150t-115 -150v-807z" />
<glyph unicode="R" horiz-adv-x="854" d="M113 0v1446h327q183 0 265.5 -98t82.5 -320q0 -132 -32.5 -217t-108.5 -139l164 -672h-231l-138 608h-106v-608h-223zM336 817h88q80 0 108.5 48t28.5 171q0 115 -31.5 158t-113.5 43h-80v-420z" />
<glyph unicode="S" horiz-adv-x="802" d="M47 367l213 32q6 -109 42 -162t106 -53q62 0 99.5 38.5t37.5 101.5q0 41 -11 76t-40 74t-52 63.5t-75 76.5l-23 23q-60 60 -92.5 94.5t-73.5 85.5t-61 91t-34.5 92t-14.5 108q0 155 101.5 258.5t244.5 103.5q140 0 231 -95.5t103 -262.5l-218 -31q-6 96 -34 138.5 t-88 42.5q-53 0 -86 -36.5t-33 -97.5q0 -32 6 -60.5t25 -60.5t31 -51t48.5 -57.5t50 -52t62.5 -60.5q68 -66 106 -108.5t75 -99.5t53 -117t16 -133q0 -159 -98 -260t-248 -101q-164 0 -263 105.5t-106 294.5z" />
<glyph unicode="T" horiz-adv-x="661" d="M-12 1237v209h688v-209h-234v-1237h-223v1237h-231z" />
<glyph unicode="U" horiz-adv-x="884" d="M98 371v1075h228v-1120q0 -65 33 -101.5t85 -36.5t82.5 36.5t30.5 101.5v1120h227v-1081q0 -191 -89 -293.5t-253 -102.5q-167 0 -255.5 102.5t-88.5 299.5z" />
<glyph unicode="V" horiz-adv-x="786" d="M20 1446h218l133 -856q24 -156 24 -301v-27q5 184 25 328l129 856h219l-256 -1446h-233z" />
<glyph unicode="W" horiz-adv-x="1126" d="M12 1446h213l99 -856q14 -126 14 -228v-28q14 253 18 284l111 828h190l119 -856q15 -108 15 -256q11 223 18 284l92 828h211l-225 -1446h-187l-122 840q-15 107 -15 256q-12 -234 -18 -285l-119 -811h-186z" />
<glyph unicode="X" horiz-adv-x="763" d="M-4 0l264 735l-260 711h231l136 -426h10l143 426h228l-252 -692l274 -754h-233l-146 471h-8l-158 -471h-229z" />
<glyph unicode="Y" horiz-adv-x="702" d="M-25 1446h226l145 -578h14l138 578h227l-260 -846v-600h-223v573z" />
<glyph unicode="Z" horiz-adv-x="774" d="M63 0v223l400 1000h-367v223h609v-209l-404 -1014h404v-223h-642z" />
<glyph unicode="[" horiz-adv-x="563" d="M141 -186v1661h355v-185h-154v-1290h154v-186h-355z" />
<glyph unicode="\" horiz-adv-x="499" d="M-96 1475h164l585 -1665h-164z" />
<glyph unicode="]" horiz-adv-x="563" d="M70 0h153v1290h-153v185h352v-1661h-352v186z" />
<glyph unicode="^" horiz-adv-x="2048" d="M418 899l497 561h218l495 -561h-207l-397 397l-399 -397h-207z" />
<glyph unicode="_" horiz-adv-x="1024" d="M0 -311h1024v-172h-1024v172z" />
<glyph unicode="`" horiz-adv-x="1024" d="M279 1389h251l99 -222h-162z" />
<glyph unicode="a" d="M47 221q0 81 22.5 145t73.5 120.5t120 104.5t175 105v115q0 98 -67 98q-42 0 -66 -25t-24 -65v-59h-201q0 5 -1 14t-1 14q0 135 85.5 220.5t213.5 85.5q137 0 201.5 -83t64.5 -251v-455q0 -219 19 -305h-199q-16 43 -19 121q-99 -135 -223 -135q-83 0 -128.5 60.5 t-45.5 174.5zM252 272q0 -104 61 -104q33 0 67.5 26t57.5 72v277q-103 -66 -144.5 -125t-41.5 -146z" />
<glyph unicode="b" horiz-adv-x="741" d="M96 0v1446h201v-465q81 100 176 100q94 0 143.5 -68t49.5 -200v-592q0 -116 -47.5 -175.5t-133.5 -59.5q-114 0 -188 96v-82h-201zM297 203q46 -49 94 -49q37 0 53.5 23.5t16.5 72.5v551q0 110 -82 110q-42 0 -82 -43v-665z" />
<glyph unicode="c" d="M76 301v471q0 151 84.5 236.5t214.5 85.5t207 -81.5t77 -232.5v-84h-204v86q0 64 -20 94.5t-66 30.5q-48 0 -68 -30t-20 -95v-475q0 -79 18 -114t68 -35q57 0 72.5 33t15.5 116v82h204v-88q0 -330 -297 -330q-130 0 -208 87t-78 243z" />
<glyph unicode="d" horiz-adv-x="741" d="M76 221v592q0 132 49 200t143 68q95 0 176 -100v465h199v-1446h-199v84q-76 -98 -190 -98q-86 0 -132 59t-46 176zM281 250q0 -49 16 -71.5t53 -22.5q50 0 94 47v665q-45 45 -84 45q-35 0 -57 -28.5t-22 -83.5v-551z" />
<glyph unicode="e" d="M76 301v479q0 140 84.5 227t216.5 87q135 0 208.5 -80t73.5 -234v-272h-378v-201q0 -79 18 -114t68 -35q57 0 72.5 33t15.5 116v74h204v-80q0 -330 -297 -330q-132 0 -209 87t-77 243zM281 674h174v108q0 64 -20 94.5t-66 30.5q-48 0 -68 -30t-20 -95v-108z" />
<glyph unicode="f" horiz-adv-x="477" d="M10 901v166h113v125q0 254 231 254q60 0 115 -16v-175q-50 11 -53 11q-51 0 -72.5 -21.5t-21.5 -68.5v-109h127v-166h-127v-901h-199v901h-113z" />
<glyph unicode="g" horiz-adv-x="706" d="M8 -172q0 53 45 98q37 37 133 76q-59 15 -91 47.5t-32 75.5q0 54 30.5 96t99.5 92q-72 45 -101 102.5t-29 149.5v213q0 154 73 235t200 81q133 0 231 -119q45 97 150 106v-174q-27 6 -41 6q-52 0 -76 -41q2 -39 2 -71v-238q0 -140 -66.5 -213.5t-189.5 -73.5q-8 0 -53 5 q-47 -35 -47 -68q0 -19 9.5 -30t31.5 -15.5t45.5 -5.5t65.5 -4t77 -8q128 -19 190 -77t62 -163q0 -125 -97.5 -188.5t-287.5 -63.5q-161 0 -247.5 46t-86.5 124zM227 -109q0 -34 40 -59t104 -25q81 0 128.5 25t47.5 62q0 44 -57 61.5t-187 19.5q-76 -37 -76 -84zM246 553 q0 -109 86 -109q88 0 88 109v248q0 108 -88 108q-86 0 -86 -108v-248z" />
<glyph unicode="h" horiz-adv-x="755" d="M96 0v1446h201v-496q113 131 227 131q140 0 140 -188v-893h-199v805q0 47 -10.5 65.5t-42.5 18.5q-20 0 -52.5 -21t-62.5 -59v-809h-201z" />
<glyph unicode="i" horiz-adv-x="393" d="M96 0v1067h201v-1067h-201zM96 1247v199h201v-199h-201z" />
<glyph unicode="j" horiz-adv-x="403" d="M-41 -147q35 -9 59 -9q39 0 62.5 24t23.5 54v1145h199v-1149q0 -254 -231 -254q-55 0 -113 17v172zM104 1247v199h199v-199h-199z" />
<glyph unicode="k" horiz-adv-x="710" d="M96 0v1446h201v-770l182 391h213l-198 -358l211 -709h-201l-139 528l-68 -125v-403h-201z" />
<glyph unicode="l" horiz-adv-x="393" d="M96 0v1446h201v-1446h-201z" />
<glyph unicode="m" horiz-adv-x="1122" d="M96 0v1067h201v-111q104 125 223 125q115 0 142 -125q49 59 108.5 91t112.5 32q147 0 147 -180v-899h-201v805q0 47 -10.5 65.5t-42.5 18.5q-20 0 -52 -21t-62 -59v-809h-185v805q0 46 -11.5 65t-45.5 19q-21 0 -55.5 -21t-67.5 -59v-809h-201z" />
<glyph unicode="n" horiz-adv-x="755" d="M96 0v1067h201v-117q113 131 227 131q140 0 140 -188v-893h-199v805q0 47 -10.5 65.5t-42.5 18.5q-20 0 -52.5 -21t-62.5 -59v-809h-201z" />
<glyph unicode="o" horiz-adv-x="727" d="M76 270v553q0 123 80 197t215 74q123 0 201.5 -77t78.5 -200v-551q0 -137 -77.5 -215t-211.5 -78q-128 0 -207 79t-79 218zM281 250q0 -44 21.5 -68t59.5 -24q39 0 63 24.5t24 67.5v581q0 34 -24 56t-63 22q-36 0 -58.5 -21.5t-22.5 -56.5v-581z" />
<glyph unicode="p" horiz-adv-x="741" d="M96 -336v1403h201v-84q76 98 188 98q86 0 133.5 -60t47.5 -177v-590q0 -132 -49.5 -200t-143.5 -68q-95 0 -176 100v-422h-201zM297 199q42 -45 82 -45q82 0 82 112v551q0 48 -16.5 71t-53.5 23q-50 0 -94 -47v-665z" />
<glyph unicode="q" horiz-adv-x="741" d="M76 254v590q0 117 46 177t132 60q114 0 190 -98v84h199v-1403h-199v422q-81 -100 -176 -100q-94 0 -143 68t-49 200zM281 266q0 -112 79 -112q39 0 84 45v665q-44 47 -94 47q-37 0 -53 -22.5t-16 -71.5v-551z" />
<glyph unicode="r" horiz-adv-x="538" d="M96 0v1067h201v-145q76 157 211 157h20v-223q-28 14 -65 14q-77 0 -121.5 -46.5t-44.5 -125.5v-698h-201z" />
<glyph unicode="s" horiz-adv-x="686" d="M29 289l192 43q12 -91 42.5 -132.5t88.5 -41.5q41 0 66.5 25.5t25.5 68.5q0 25 -10.5 49t-24 43t-45.5 47t-54.5 46t-71.5 55q-98 74 -142.5 145.5t-44.5 165.5q0 132 81.5 211.5t211.5 79.5q123 0 199.5 -74t85.5 -203l-189 -45q-21 135 -106 135q-40 0 -63 -25.5 t-23 -68.5q0 -25 8 -46t31 -45.5t39 -38.5t59 -48t64 -51q101 -84 146.5 -155t45.5 -167q0 -133 -82.5 -212t-214.5 -79q-127 0 -211 83.5t-104 234.5z" />
<glyph unicode="t" horiz-adv-x="544" d="M27 901v166h123v307h198v-307h148v-166h-148v-657q0 -92 88 -92q18 0 60 10v-174q-58 -17 -115 -17q-231 0 -231 254v676h-123z" />
<glyph unicode="u" horiz-adv-x="755" d="M92 174v893h199v-819q0 -38 12 -55t41 -17q20 0 53.5 21t63.5 59v811h198v-1067h-198v117q-115 -133 -230 -133q-139 0 -139 190z" />
<glyph unicode="v" horiz-adv-x="614" d="M0 1067h184l123 -657h10l101 657h196l-206 -1067h-183z" />
<glyph unicode="w" horiz-adv-x="940" d="M0 1067h190l80 -512q15 -108 21 -260q3 117 26 260l80 512h152l88 -512q24 -135 29 -260v43q0 115 12 217l78 512h184l-182 -1067h-174l-92 520q-13 75 -19 244q-8 -165 -20 -246l-78 -518h-176z" />
<glyph unicode="x" horiz-adv-x="620" d="M-4 0l203 557l-189 510h199l96 -287h10l95 287h204l-196 -506l203 -561h-195l-113 328h-8l-115 -328h-194z" />
<glyph unicode="y" horiz-adv-x="653" d="M18 1067h187l123 -684h8l100 684h199l-225 -1141q-28 -140 -94.5 -201t-196.5 -61q-43 0 -80 2v191h37q83 0 119.5 37t42.5 131z" />
<glyph unicode="z" horiz-adv-x="634" d="M53 0v178l326 703h-301v186h508v-176l-312 -701h312v-190h-533z" />
<glyph unicode="{" horiz-adv-x="1024" d="M162 442v179q7 0 21.5 -1.5t21.5 -1.5q127 0 179 59.5t52 201.5v247q0 128 19.5 195.5t83.5 105.5q50 29 117.5 39.5t172.5 10.5h45v-179q-8 0 -24 1t-23 1q-115 0 -150.5 -44.5t-35.5 -170.5v-241q0 -147 -41 -215.5t-162 -98.5q121 -30 162 -99t41 -214v-240 q0 -65 7 -103t27.5 -65.5t56.5 -38t97 -10.5q7 0 22 1t23 1v-176h-63q-189 0 -272 49q-63 37 -83 105t-20 194v248q0 142 -51.5 202t-179.5 60q-7 0 -21.5 -1t-21.5 -1z" />
<glyph unicode="|" horiz-adv-x="1024" d="M424 -483v2048h178v-2048h-178z" />
<glyph unicode="}" horiz-adv-x="1024" d="M152 -238q8 0 23 -1t22 -1q116 0 151 45t35 172v240q0 145 42 214t163 99q-122 29 -163.5 98.5t-41.5 215.5v241q0 126 -35 170.5t-149 44.5q-7 0 -23 -1t-24 -1v179h45q104 0 171.5 -10.5t116.5 -39.5q64 -38 83.5 -106t19.5 -195v-247q0 -142 51.5 -201.5t179.5 -59.5 q6 0 21 1.5t22 1.5v-179q-7 0 -21.5 1t-21.5 1q-128 0 -179.5 -60t-51.5 -202v-248q0 -127 -19.5 -194t-83.5 -105q-48 -29 -115.5 -39t-172.5 -10h-45v176z" />
<glyph unicode="~" horiz-adv-x="1705" d="M178 434v187q210 143 387 143q122 0 293 -59q12 -4 48.5 -17t51 -18t45.5 -14.5t51 -13.5t46.5 -7.5t50.5 -3.5q166 0 379 153v-184q-204 -141 -381 -141q-91 0 -191 35q-19 6 -79.5 27t-85.5 28.5t-71.5 20.5t-83.5 17.5t-75 4.5q-160 0 -385 -158z" />
<glyph unicode="&#xa1;" horiz-adv-x="440" d="M104 0l48 1028h135l47 -1028h-230zM113 1219v227h213v-227h-213z" />
<glyph unicode="&#xa2;" horiz-adv-x="831" d="M125 492v479q0 120 58.5 198t170.5 107v244h123v-240q125 -30 178.5 -103.5t53.5 -205.5v-84h-205v86q0 64 -20 94.5t-66 30.5q-48 0 -68 -30t-20 -95v-477q0 -79 18 -113.5t68 -34.5q57 0 72.5 32.5t15.5 115.5v84h205v-88q0 -144 -55 -222.5t-177 -101.5v-244h-123v242 q-229 62 -229 326z" />
<glyph unicode="&#xa3;" horiz-adv-x="831" d="M104 0v193q82 15 132.5 78t50.5 151q0 55 -27 166h-139v184h86q-86 214 -86 342q0 158 90.5 259.5t224.5 101.5q162 0 248 -114t86 -333v-29h-221q-5 143 -29.5 206t-85.5 63q-42 0 -66 -35.5t-24 -99.5q0 -96 72 -361h246v-184h-205q8 -86 8 -121q0 -140 -82 -258h391 v-209h-670z" />
<glyph unicode="&#xa4;" horiz-adv-x="831" d="M-18 788l38 91h86v233q0 171 90.5 268t249.5 97q149 0 237.5 -99t88.5 -272v-121h-217v170q0 51 -31.5 83t-83.5 32q-48 0 -81 -31.5t-33 -81.5v-278h284l-41 -91h-243v-133h184l-39 -90h-145v-256q0 -62 33 -98.5t81 -36.5q56 0 85.5 34.5t29.5 100.5v160h217v-104 q0 -191 -87.5 -293.5t-246.5 -102.5q-161 0 -246.5 102.5t-85.5 299.5v194h-102l41 90h61v133h-124z" />
<glyph unicode="&#xa5;" horiz-adv-x="702" d="M-12 1446h213l141 -590h14l129 590h220l-158 -533h160v-90h-187l-39 -133h226v-90h-252v-600h-213v600h-248v90h221l-39 133h-182v90h153z" />
<glyph unicode="&#xa6;" horiz-adv-x="1024" d="M424 -350v758h178v-758h-178zM424 674v758h178v-758h-178z" />
<glyph unicode="&#xa7;" horiz-adv-x="884" d="M63 799q0 88 54.5 150t150.5 79q-50 60 -72 106t-22 101q0 105 74 172.5t188 67.5q181 0 299 -156l-129 -98q-47 52 -81.5 76t-71.5 24q-42 0 -68.5 -28t-26.5 -70q0 -30 28 -68.5t91 -101.5l172 -172q86 -88 127 -161t41 -147q0 -93 -50 -148t-155 -77q99 -105 99 -229 q0 -122 -74.5 -191t-198.5 -69q-89 0 -169.5 44t-139.5 128l131 104q95 -115 164 -115q46 0 74 27.5t28 73.5q0 43 -25.5 82t-84.5 102l-191 201q-84 89 -123 154.5t-39 138.5zM242 819q0 -68 141 -209q86 -86 114 -105q37 -26 70 -26q31 0 51.5 22t20.5 56q0 31 -23 67 t-71 89q-93 101 -142.5 143.5t-87.5 42.5q-31 0 -52 -22.5t-21 -57.5z" />
<glyph unicode="&#xa8;" horiz-adv-x="1024" d="M285 1178v200h182v-200h-182zM555 1178v200h184v-200h-184z" />
<glyph unicode="&#xa9;" horiz-adv-x="1705" d="M113 731q0 146 57.5 281t163.5 243q212 215 518 215q309 0 526 -217q105 -105 160 -238.5t55 -283.5q0 -152 -54.5 -285.5t-158.5 -234.5q-109 -107 -245 -164t-283 -57q-146 0 -280 56.5t-240 162.5t-162.5 240.5t-56.5 281.5zM223 731q0 -257 187 -444q91 -91 205 -139 t239 -48q257 0 449 189q182 179 182 442q0 128 -46.5 243t-135.5 204q-184 184 -449 184t-444 -182q-91 -92 -139 -208t-48 -241zM457 725q0 209 110 332t291 123q147 0 243 -77t105 -200h-166q-10 73 -60 113.5t-130 40.5q-97 0 -154 -85t-57 -241q0 -153 58 -235t163 -82 q79 0 129 43.5t60 124.5h165q-8 -134 -106.5 -216.5t-253.5 -82.5q-182 0 -289.5 118.5t-107.5 323.5z" />
<glyph unicode="&#xaa;" horiz-adv-x="546" d="M35 856q0 110 67.5 181.5t227.5 150.5v80q0 69 -51 69q-32 0 -50 -17.5t-18 -45.5v-41h-152v18q0 95 64.5 155t159.5 60q103 0 151.5 -58t48.5 -175v-320q0 -146 13 -213h-148q-10 24 -14 84q-73 -94 -168 -94q-62 0 -96.5 42.5t-34.5 123.5zM188 891q0 -35 13 -54.5 t35 -19.5q55 0 94 70v192q-78 -46 -110 -86.5t-32 -101.5z" />
<glyph unicode="&#xab;" horiz-adv-x="739" d="M76 530l145 318h172l-139 -318l139 -315h-172zM350 530l142 318h172l-140 -318l140 -315h-172z" />
<glyph unicode="&#xac;" horiz-adv-x="1705" d="M254 696v166h1198v-502h-166v336h-1032z" />
<glyph unicode="&#xad;" horiz-adv-x="634" d="M80 457v151h475v-151h-475z" />
<glyph unicode="&#xae;" horiz-adv-x="1705" d="M113 731q0 148 58 285t165 244q210 210 516 210q312 0 530 -221q211 -214 211 -518q0 -313 -217 -524q-108 -105 -243.5 -161t-280.5 -56q-147 0 -282.5 57.5t-241.5 165.5q-104 106 -159.5 239t-55.5 279zM223 731q0 -256 183 -442q91 -91 204.5 -140t233.5 -49 q265 0 456 185q89 86 137 199t48 237q0 270 -180 453q-188 188 -451 188q-260 0 -440 -180q-92 -94 -141.5 -210.5t-49.5 -240.5zM551 330v829h319q173 0 262 -57.5t89 -167.5q0 -91 -48 -150t-137 -79l185 -375h-199l-164 346h-129v-346h-178zM729 786h117q99 0 145.5 30 t46.5 97q0 70 -49 102t-151 32h-109v-261z" />
<glyph unicode="&#xaf;" horiz-adv-x="1024" d="M313 1212v131h398v-131h-398z" />
<glyph unicode="&#xb0;" horiz-adv-x="673" d="M43 1163q0 124 86 210.5t209 86.5q122 0 208.5 -87t86.5 -210q0 -121 -86.5 -208t-210.5 -87q-123 0 -208 85.5t-85 209.5zM152 1165q0 -77 55 -131.5t131 -54.5q77 0 130.5 55t53.5 131q0 77 -54 131t-130 54q-77 0 -131.5 -54.5t-54.5 -130.5z" />
<glyph unicode="&#xb1;" horiz-adv-x="1705" d="M254 14v168h1198v-168h-1198zM254 707v165h514v334h170v-334h514v-165h-514v-334h-170v334h-514z" />
<glyph unicode="&#xb2;" horiz-adv-x="534" d="M41 578v124q299 376 299 539q0 50 -18 77.5t-48 27.5q-41 0 -58 -28.5t-19 -92.5v-31h-144v14q0 122 59 188t164 66q91 0 146 -55t55 -152q0 -110 -66.5 -234t-211.5 -319h266v-124h-424z" />
<glyph unicode="&#xb3;" horiz-adv-x="503" d="M37 807v20h139v-34q0 -109 70 -109q43 0 60.5 29t17.5 94q0 88 -25.5 124t-95.5 36h-19v123h23q57 0 80.5 32.5t23.5 102.5q0 58 -15 85t-48 27q-36 0 -52 -23t-16 -71v-35h-139v9q0 117 55 180t152 63q192 0 192 -246q0 -73 -18.5 -117.5t-63.5 -68.5q57 -25 79 -72.5 t22 -132.5q0 -129 -53.5 -195.5t-151.5 -66.5q-102 0 -159.5 63.5t-57.5 182.5z" />
<glyph unicode="&#xb4;" horiz-adv-x="1024" d="M397 1167l97 222h254l-189 -222h-162z" />
<glyph unicode="&#xb5;" horiz-adv-x="1208" d="M-92 -430l297 1511h229l-125 -635q-12 -58 -12 -104q0 -97 46.5 -147t135.5 -50q125 0 195.5 91t109.5 290l109 555h225l-145 -739q-19 -100 -19 -133q0 -35 15.5 -50.5t52.5 -15.5q23 0 35 2l-33 -159q-67 -17 -150 -17q-149 0 -149 125v15q-41 -67 -108.5 -104.5 t-145.5 -37.5q-79 0 -136 25.5t-99 83.5l-99 -506h-229z" />
<glyph unicode="&#xb6;" horiz-adv-x="1024" d="M55 1130q0 156 106 252.5t285 96.5h523v-99h-117v-1380h-129v1380h-170v-1380h-129v784q-170 6 -269.5 101t-99.5 245z" />
<glyph unicode="&#xb7;" horiz-adv-x="440" d="M92 741q0 53 37.5 91t89.5 38q54 0 91.5 -38t37.5 -91q0 -54 -37.5 -91.5t-91.5 -37.5q-52 0 -89.5 38t-37.5 91z" />
<glyph unicode="&#xb8;" horiz-adv-x="1024" d="M299 -240q69 -16 131 -16q37 0 59.5 14t22.5 37q0 60 -111 60h-10l62 145h69l-35 -78h17q97 0 149 -34t52 -93q0 -63 -61 -97t-179 -34q-76 0 -166 19v77z" />
<glyph unicode="&#xb9;" horiz-adv-x="350" d="M-6 1251v86q109 36 164 109h98v-868h-147v673h-115z" />
<glyph unicode="&#xba;" horiz-adv-x="544" d="M57 889v387q0 86 60.5 138t161.5 52q93 0 151.5 -54t58.5 -140v-385q0 -96 -58.5 -150.5t-158.5 -54.5q-97 0 -156 55t-59 152zM211 874q0 -63 61 -63q30 0 47 16.5t17 46.5v408q0 25 -17.5 40t-46.5 15q-27 0 -44 -15.5t-17 -39.5v-408z" />
<glyph unicode="&#xbb;" horiz-adv-x="739" d="M76 215l139 315l-139 318h172l141 -318l-141 -315h-172zM344 215l139 315l-139 318h174l146 -318l-146 -315h-174z" />
<glyph unicode="&#xbc;" horiz-adv-x="1126" d="M-6 1264v82q107 34 156 98h94v-809h-140v629h-110zM57 0l654 1446h176l-654 -1446h-176zM643 197v106l234 506h131v-506h86v-106h-86v-197h-131v197h-234zM762 303h115v297z" />
<glyph unicode="&#xbd;" horiz-adv-x="1120" d="M-6 1264v82q107 34 156 98h94v-809h-140v629h-110zM57 0l654 1446h176l-654 -1446h-176zM649 0v117q287 352 287 501q0 46 -18 72.5t-46 26.5q-40 0 -55.5 -26.5t-17.5 -86.5l-2 -29h-135v15q0 113 55.5 174t156.5 61q86 0 138.5 -51.5t52.5 -140.5q0 -101 -62.5 -215.5 t-201.5 -300.5h254v-117h-406z" />
<glyph unicode="&#xbe;" horiz-adv-x="1271" d="M37 848v20h133v-32q0 -53 15.5 -78t50.5 -25q40 0 56.5 28t16.5 89q0 81 -24.5 115t-91.5 34h-17v113h21q55 0 77.5 30.5t22.5 96.5q0 54 -13.5 79t-45.5 25q-35 0 -50.5 -21t-15.5 -67v-30h-131v6q0 109 52.5 169t144.5 60q182 0 182 -229q0 -69 -18 -111t-60 -63 q54 -24 75 -69t21 -124q0 -122 -50.5 -184t-145.5 -62t-150 59.5t-55 170.5zM203 0l653 1446h176l-653 -1446h-176zM788 197v106l234 506h131v-506h86v-106h-86v-197h-131v197h-234zM907 303h115v297z" />
<glyph unicode="&#xbf;" horiz-adv-x="630" d="M29 248q0 78 32 155t82.5 162.5t69.5 134.5q43 108 43 250q0 45 -2 68h174q0 -10 1 -30t1 -30q0 -206 -63 -374q-22 -58 -58.5 -126.5t-58 -115.5t-21.5 -82q0 -43 23 -70.5t61 -27.5q39 0 72 37.5t66 115.5l174 -69q-80 -277 -310 -277q-134 0 -210 75t-76 204z M233 1206v238h216v-238h-216z" />
<glyph unicode="&#xc0;" horiz-adv-x="790" d="M12 0l238 1446h291l237 -1446h-229l-45 313h-225l-48 -313h-219zM162 1741h252l98 -221h-162zM307 518h170l-76 604h-14z" />
<glyph unicode="&#xc1;" horiz-adv-x="790" d="M12 0l238 1446h291l237 -1446h-229l-45 313h-225l-48 -313h-219zM281 1520l96 221h254l-189 -221h-161zM307 518h170l-76 604h-14z" />
<glyph unicode="&#xc2;" horiz-adv-x="790" d="M12 0l238 1446h291l237 -1446h-229l-45 313h-225l-48 -313h-219zM143 1520l154 221h197l153 -221h-162l-90 108l-90 -108h-162zM307 518h170l-76 604h-14z" />
<glyph unicode="&#xc3;" horiz-adv-x="790" d="M12 0l238 1446h291l237 -1446h-229l-45 313h-225l-48 -313h-219zM141 1528v16q0 87 42.5 137t115.5 50q45 0 108 -31t85 -31q24 0 37.5 14.5t13.5 40.5v9h106v-17q0 -87 -42 -136.5t-115 -49.5q-45 0 -108 30.5t-85 30.5q-24 0 -37.5 -14.5t-13.5 -40.5v-8h-107zM307 518 h170l-76 604h-14z" />
<glyph unicode="&#xc4;" horiz-adv-x="790" d="M12 0l238 1446h291l237 -1446h-229l-45 313h-225l-48 -313h-219zM168 1530v201h182v-201h-182zM307 518h170l-76 604h-14zM438 1530v201h185v-201h-185z" />
<glyph unicode="&#xc5;" horiz-adv-x="790" d="M12 0l238 1446h291l237 -1446h-229l-45 313h-225l-48 -313h-219zM217 1671q0 73 52.5 125.5t125.5 52.5t125.5 -52.5t52.5 -125.5q0 -75 -52 -126.5t-126 -51.5q-75 0 -126.5 51.5t-51.5 126.5zM307 518h170l-76 604h-14zM328 1671q0 -28 19.5 -46.5t47.5 -18.5 q29 0 48.5 18.5t19.5 46.5q0 29 -19.5 48.5t-48.5 19.5q-28 0 -47.5 -20t-19.5 -48z" />
<glyph unicode="&#xc6;" horiz-adv-x="1142" d="M-61 0l448 1446h694v-209h-364v-379h266v-209h-266v-432h364v-217h-579v346h-232l-94 -346h-237zM324 547h176v608h-15z" />
<glyph unicode="&#xc7;" horiz-adv-x="849" d="M88 371v741q0 170 92.5 267.5t257.5 97.5q154 0 245 -99t91 -272v-139h-229v159q0 150 -115 150t-115 -150v-807q0 -151 115 -151t115 151v197h229v-151q0 -191 -90 -293.5t-254 -102.5q-169 0 -255.5 102t-86.5 300zM213 -240q69 -16 131 -16q37 0 59.5 14t22.5 37 q0 60 -111 60h-10l62 145h69l-35 -78h17q97 0 148.5 -34t51.5 -93q0 -63 -60.5 -97t-178.5 -34q-76 0 -166 19v77z" />
<glyph unicode="&#xc8;" horiz-adv-x="753" d="M115 0v1446h581v-209h-358v-379h258v-209h-258v-432h358v-217h-581zM176 1741h252l98 -221h-161z" />
<glyph unicode="&#xc9;" horiz-adv-x="753" d="M115 0v1446h581v-209h-358v-379h258v-209h-258v-432h358v-217h-581zM295 1520l96 221h254l-188 -221h-162z" />
<glyph unicode="&#xca;" horiz-adv-x="753" d="M115 0v1446h581v-209h-358v-379h258v-209h-258v-432h358v-217h-581zM158 1520l153 221h197l154 -221h-162l-90 108l-91 -108h-161z" />
<glyph unicode="&#xcb;" horiz-adv-x="753" d="M115 0v1446h581v-209h-358v-379h258v-209h-258v-432h358v-217h-581zM182 1530v201h183v-201h-183zM453 1530v201h184v-201h-184z" />
<glyph unicode="&#xcc;" horiz-adv-x="450" d="M-8 1741h252l98 -221h-162zM115 0v1446h227v-1446h-227z" />
<glyph unicode="&#xcd;" horiz-adv-x="450" d="M111 1520l96 221h254l-189 -221h-161zM115 0v1446h227v-1446h-227z" />
<glyph unicode="&#xce;" horiz-adv-x="450" d="M-27 1520l154 221h197l153 -221h-162l-90 108l-90 -108h-162zM115 0v1446h227v-1446h-227z" />
<glyph unicode="&#xcf;" horiz-adv-x="450" d="M-2 1530v201h182v-201h-182zM115 0v1446h227v-1446h-227zM268 1530v201h185v-201h-185z" />
<glyph unicode="&#xd0;" horiz-adv-x="888" d="M10 670v166h113v610h319q185 0 273 -97.5t88 -299.5v-646q0 -209 -83.5 -306t-268.5 -97h-328v670h-113zM346 213h113q61 0 88.5 38t27.5 114v696q0 89 -43 130.5t-135 41.5h-51v-397h115v-166h-115v-457z" />
<glyph unicode="&#xd1;" horiz-adv-x="937" d="M115 0v1446h200l283 -864q16 -47 43 -154q-25 142 -25 195v823h209v-1446h-209l-272 799q-38 116 -47 157q25 -159 25 -200v-756h-207zM229 1528v16q0 87 42.5 137t115.5 50q45 0 108 -31t85 -31q24 0 37.5 14.5t13.5 40.5v9h106v-17q0 -87 -42 -136.5t-115 -49.5 q-45 0 -108 30.5t-85 30.5q-24 0 -37.5 -14.5t-13.5 -40.5v-8h-107z" />
<glyph unicode="&#xd2;" horiz-adv-x="862" d="M88 371v741q0 170 92.5 267.5t257.5 97.5q154 0 245 -99t91 -272v-741q0 -191 -90 -293.5t-254 -102.5q-166 0 -254 102.5t-88 299.5zM199 1741h252l98 -221h-162zM315 319q0 -151 115 -151t115 151v807q0 150 -115 150t-115 -150v-807z" />
<glyph unicode="&#xd3;" horiz-adv-x="862" d="M88 371v741q0 170 92.5 267.5t257.5 97.5q154 0 245 -99t91 -272v-741q0 -191 -90 -293.5t-254 -102.5q-166 0 -254 102.5t-88 299.5zM315 319q0 -151 115 -151t115 151v807q0 150 -115 150t-115 -150v-807zM317 1520l97 221h254l-189 -221h-162z" />
<glyph unicode="&#xd4;" horiz-adv-x="862" d="M88 371v741q0 170 92.5 267.5t257.5 97.5q154 0 245 -99t91 -272v-741q0 -191 -90 -293.5t-254 -102.5q-166 0 -254 102.5t-88 299.5zM180 1520l154 221h196l154 -221h-162l-90 108l-90 -108h-162zM315 319q0 -151 115 -151t115 151v807q0 150 -115 150t-115 -150v-807z " />
<glyph unicode="&#xd5;" horiz-adv-x="862" d="M88 371v741q0 170 92.5 267.5t257.5 97.5q154 0 245 -99t91 -272v-741q0 -191 -90 -293.5t-254 -102.5q-166 0 -254 102.5t-88 299.5zM178 1528v16q0 87 42.5 137t115.5 50q45 0 107.5 -31t84.5 -31q24 0 38 14.5t14 40.5v9h106v-17q0 -87 -42.5 -136.5t-115.5 -49.5 q-45 0 -107.5 30.5t-84.5 30.5q-24 0 -37.5 -14.5t-13.5 -40.5v-8h-107zM315 319q0 -151 115 -151t115 151v807q0 150 -115 150t-115 -150v-807z" />
<glyph unicode="&#xd6;" horiz-adv-x="862" d="M88 371v741q0 170 92.5 267.5t257.5 97.5q154 0 245 -99t91 -272v-741q0 -191 -90 -293.5t-254 -102.5q-166 0 -254 102.5t-88 299.5zM205 1530v201h182v-201h-182zM315 319q0 -151 115 -151t115 151v807q0 150 -115 150t-115 -150v-807zM475 1530v201h184v-201h-184z " />
<glyph unicode="&#xd7;" horiz-adv-x="1705" d="M287 152l458 458l-458 461l116 117l459 -459l461 459l117 -117l-459 -461l459 -458l-117 -119l-461 461l-459 -461z" />
<glyph unicode="&#xd8;" horiz-adv-x="862" d="M61 -31l66 172q-39 85 -39 230v741q0 171 92.5 268t257.5 97q100 0 183 -50l16 48h162l-64 -175q39 -90 39 -194v-741q0 -191 -90 -293.5t-254 -102.5q-114 0 -194 51l-15 -51h-160zM307 569l236 652q-31 67 -113 67q-53 0 -88 -32.5t-35 -84.5v-602zM317 227 q41 -69 117 -69q54 0 87.5 37t33.5 102v582z" />
<glyph unicode="&#xd9;" horiz-adv-x="884" d="M98 371v1075h228v-1120q0 -65 33 -101.5t85 -36.5t82.5 36.5t30.5 101.5v1120h227v-1081q0 -191 -89 -293.5t-253 -102.5q-167 0 -255.5 102.5t-88.5 299.5zM209 1741h252l98 -221h-162z" />
<glyph unicode="&#xda;" horiz-adv-x="884" d="M98 371v1075h228v-1120q0 -65 33 -101.5t85 -36.5t82.5 36.5t30.5 101.5v1120h227v-1081q0 -191 -89 -293.5t-253 -102.5q-167 0 -255.5 102.5t-88.5 299.5zM328 1520l96 221h254l-189 -221h-161z" />
<glyph unicode="&#xdb;" horiz-adv-x="884" d="M98 371v1075h228v-1120q0 -65 33 -101.5t85 -36.5t82.5 36.5t30.5 101.5v1120h227v-1081q0 -191 -89 -293.5t-253 -102.5q-167 0 -255.5 102.5t-88.5 299.5zM190 1520l154 221h197l153 -221h-162l-90 108l-90 -108h-162z" />
<glyph unicode="&#xdc;" horiz-adv-x="884" d="M98 371v1075h228v-1120q0 -65 33 -101.5t85 -36.5t82.5 36.5t30.5 101.5v1120h227v-1081q0 -191 -89 -293.5t-253 -102.5q-167 0 -255.5 102.5t-88.5 299.5zM215 1530v201h182v-201h-182zM485 1530v201h185v-201h-185z" />
<glyph unicode="&#xdd;" horiz-adv-x="702" d="M-25 1446h226l145 -578h14l138 578h227l-260 -846v-600h-223v573zM238 1520l96 221h254l-189 -221h-161z" />
<glyph unicode="&#xde;" horiz-adv-x="833" d="M113 0v1446h223v-289h104q182 0 265 -99t83 -319q0 -209 -81.5 -325.5t-217.5 -116.5h-153v-297h-223zM336 506h88q81 0 109 49.5t28 179.5q0 122 -30.5 167.5t-114.5 45.5h-80v-442z" />
<glyph unicode="&#xdf;" horiz-adv-x="823" d="M-16 883v184h131q0 15 -0.5 29t-1 22t-0.5 10q0 165 70.5 241.5t226.5 76.5q135 0 208.5 -69.5t73.5 -192.5q0 -77 -30 -126.5t-95 -78.5q108 -24 145.5 -86.5t37.5 -192.5v-366q0 -348 -240 -348q-74 0 -150 43v155q45 -26 72 -26q58 0 88.5 37t30.5 108v436 q0 77 -28 110.5t-99 33.5h-64v184h60q34 0 58 28.5t24 69.5q0 51 -26 80t-70 29t-68.5 -27t-24.5 -78v-1169h-198v883h-131z" />
<glyph unicode="&#xe0;" d="M47 221q0 81 22.5 145t73.5 120.5t120 104.5t175 105v115q0 98 -67 98q-42 0 -66 -25t-24 -65v-59h-201q0 5 -1 14t-1 14q0 135 85.5 220.5t213.5 85.5q137 0 201.5 -83t64.5 -251v-455q0 -219 19 -305h-199q-16 43 -19 121q-99 -135 -223 -135q-83 0 -128.5 60.5 t-45.5 174.5zM147 1389h252l99 -222h-162zM252 272q0 -104 61 -104q33 0 67.5 26t57.5 72v277q-103 -66 -144.5 -125t-41.5 -146z" />
<glyph unicode="&#xe1;" d="M47 221q0 81 22.5 145t73.5 120.5t120 104.5t175 105v115q0 98 -67 98q-42 0 -66 -25t-24 -65v-59h-201q0 5 -1 14t-1 14q0 135 85.5 220.5t213.5 85.5q137 0 201.5 -83t64.5 -251v-455q0 -219 19 -305h-199q-16 43 -19 121q-99 -135 -223 -135q-83 0 -128.5 60.5 t-45.5 174.5zM252 272q0 -104 61 -104q33 0 67.5 26t57.5 72v277q-103 -66 -144.5 -125t-41.5 -146zM266 1167l96 222h254l-188 -222h-162z" />
<glyph unicode="&#xe2;" d="M47 221q0 81 22.5 145t73.5 120.5t120 104.5t175 105v115q0 98 -67 98q-42 0 -66 -25t-24 -65v-59h-201q0 5 -1 14t-1 14q0 135 85.5 220.5t213.5 85.5q137 0 201.5 -83t64.5 -251v-455q0 -219 19 -305h-199q-16 43 -19 121q-99 -135 -223 -135q-83 0 -128.5 60.5 t-45.5 174.5zM129 1167l154 222h196l154 -222h-162l-90 109l-90 -109h-162zM252 272q0 -104 61 -104q33 0 67.5 26t57.5 72v277q-103 -66 -144.5 -125t-41.5 -146z" />
<glyph unicode="&#xe3;" d="M47 221q0 81 22.5 145t73.5 120.5t120 104.5t175 105v115q0 98 -67 98q-42 0 -66 -25t-24 -65v-59h-201q0 5 -1 14t-1 14q0 135 85.5 220.5t213.5 85.5q137 0 201.5 -83t64.5 -251v-455q0 -219 19 -305h-199q-16 43 -19 121q-99 -135 -223 -135q-83 0 -128.5 60.5 t-45.5 174.5zM127 1176v16q0 87 42.5 136.5t115.5 49.5q45 0 107.5 -30.5t84.5 -30.5q24 0 37.5 14.5t13.5 40.5v8h107v-16q0 -87 -42.5 -136.5t-115.5 -49.5q-45 0 -107.5 30.5t-84.5 30.5q-24 0 -38 -14.5t-14 -40.5v-8h-106zM252 272q0 -104 61 -104q33 0 67.5 26 t57.5 72v277q-103 -66 -144.5 -125t-41.5 -146z" />
<glyph unicode="&#xe4;" d="M47 221q0 81 22.5 145t73.5 120.5t120 104.5t175 105v115q0 98 -67 98q-42 0 -66 -25t-24 -65v-59h-201q0 5 -1 14t-1 14q0 135 85.5 220.5t213.5 85.5q137 0 201.5 -83t64.5 -251v-455q0 -219 19 -305h-199q-16 43 -19 121q-99 -135 -223 -135q-83 0 -128.5 60.5 t-45.5 174.5zM154 1178v200h182v-200h-182zM252 272q0 -104 61 -104q33 0 67.5 26t57.5 72v277q-103 -66 -144.5 -125t-41.5 -146zM424 1178v200h184v-200h-184z" />
<glyph unicode="&#xe5;" d="M47 221q0 81 22.5 145t73.5 120.5t120 104.5t175 105v115q0 98 -67 98q-42 0 -66 -25t-24 -65v-59h-201q0 5 -1 14t-1 14q0 135 85.5 220.5t213.5 85.5q137 0 201.5 -83t64.5 -251v-455q0 -219 19 -305h-199q-16 43 -19 121q-99 -135 -223 -135q-83 0 -128.5 60.5 t-45.5 174.5zM209 1319q0 73 52.5 125.5t125.5 52.5t125.5 -52.5t52.5 -125.5q0 -75 -52 -126.5t-126 -51.5q-75 0 -126.5 51.5t-51.5 126.5zM252 272q0 -104 61 -104q33 0 67.5 26t57.5 72v277q-103 -66 -144.5 -125t-41.5 -146zM319 1317q0 -28 20 -47t48 -19 q29 0 48.5 19t19.5 47q0 29 -19.5 48t-48.5 19q-28 0 -48 -19.5t-20 -47.5z" />
<glyph unicode="&#xe6;" horiz-adv-x="1095" d="M51 221q0 81 22.5 145.5t74.5 121t120.5 104t175.5 104.5v115q0 98 -69 98q-52 0 -73 -35.5t-21 -113.5h-201v4q0 151 84.5 240.5t216.5 89.5q99 0 178 -62q83 62 182 62q132 0 208.5 -81t76.5 -233v-272h-379v-201q0 -79 19 -114t69 -35q57 0 72.5 33t15.5 116v74h203 v-80q0 -321 -287 -321q-91 0 -150.5 34t-111.5 119q-137 -153 -252 -153q-80 0 -127 63.5t-47 177.5zM256 274q0 -106 59 -106q80 0 129 98v277q-104 -69 -146 -126t-42 -143zM647 674h176v108q0 64 -21 95.5t-67 31.5q-48 0 -68 -31t-20 -96v-108z" />
<glyph unicode="&#xe7;" d="M76 301v471q0 151 84.5 236.5t214.5 85.5t207 -81.5t77 -232.5v-84h-204v86q0 64 -20 94.5t-66 30.5q-48 0 -68 -30t-20 -95v-475q0 -79 18 -114t68 -35q57 0 72.5 33t15.5 116v82h204v-88q0 -330 -297 -330q-130 0 -208 87t-78 243zM152 -240q69 -16 131 -16 q37 0 59.5 14t22.5 37q0 60 -111 60h-10l61 145h70l-35 -78h16q97 0 149 -34t52 -93q0 -63 -61 -97t-179 -34q-75 0 -165 19v77z" />
<glyph unicode="&#xe8;" d="M76 301v479q0 140 84.5 227t216.5 87q135 0 208.5 -80t73.5 -234v-272h-378v-201q0 -79 18 -114t68 -35q57 0 72.5 33t15.5 116v74h204v-80q0 -330 -297 -330q-132 0 -209 87t-77 243zM143 1389h252l99 -222h-162zM281 674h174v108q0 64 -20 94.5t-66 30.5q-48 0 -68 -30 t-20 -95v-108z" />
<glyph unicode="&#xe9;" d="M76 301v479q0 140 84.5 227t216.5 87q135 0 208.5 -80t73.5 -234v-272h-378v-201q0 -79 18 -114t68 -35q57 0 72.5 33t15.5 116v74h204v-80q0 -330 -297 -330q-132 0 -209 87t-77 243zM262 1167l96 222h254l-188 -222h-162zM281 674h174v108q0 64 -20 94.5t-66 30.5 q-48 0 -68 -30t-20 -95v-108z" />
<glyph unicode="&#xea;" d="M76 301v479q0 140 84.5 227t216.5 87q135 0 208.5 -80t73.5 -234v-272h-378v-201q0 -79 18 -114t68 -35q57 0 72.5 33t15.5 116v74h204v-80q0 -330 -297 -330q-132 0 -209 87t-77 243zM125 1167l154 222h196l154 -222h-162l-90 109l-90 -109h-162zM281 674h174v108 q0 64 -20 94.5t-66 30.5q-48 0 -68 -30t-20 -95v-108z" />
<glyph unicode="&#xeb;" d="M76 301v479q0 140 84.5 227t216.5 87q135 0 208.5 -80t73.5 -234v-272h-378v-201q0 -79 18 -114t68 -35q57 0 72.5 33t15.5 116v74h204v-80q0 -330 -297 -330q-132 0 -209 87t-77 243zM150 1178v200h182v-200h-182zM281 674h174v108q0 64 -20 94.5t-66 30.5 q-48 0 -68 -30t-20 -95v-108zM420 1178v200h184v-200h-184z" />
<glyph unicode="&#xec;" horiz-adv-x="393" d="M-37 1389h252l98 -222h-161zM96 0v1067h201v-1067h-201z" />
<glyph unicode="&#xed;" horiz-adv-x="393" d="M82 1167l96 222h254l-188 -222h-162zM96 0v1067h201v-1067h-201z" />
<glyph unicode="&#xee;" horiz-adv-x="393" d="M-55 1167l153 222h197l154 -222h-162l-90 109l-91 -109h-161zM96 0v1067h201v-1067h-201z" />
<glyph unicode="&#xef;" horiz-adv-x="393" d="M-31 1178v200h183v-200h-183zM96 0v1067h201v-1067h-201zM240 1178v200h184v-200h-184z" />
<glyph unicode="&#xf0;" horiz-adv-x="727" d="M76 270v504q0 124 79.5 198.5t215.5 74.5q5 0 35 -3q-36 79 -99 148l-164 -129l-53 78l154 121q-26 29 -109 112l92 101q63 -49 135 -121l152 121l57 -76l-143 -113q117 -130 170 -265t53 -298v-457q0 -137 -77.5 -215t-211.5 -78q-128 0 -207 79t-79 218zM281 250 q0 -44 21.5 -68t59.5 -24q40 0 63.5 24t23.5 68v553q0 34 -24 56t-63 22q-36 0 -58.5 -21.5t-22.5 -56.5v-553z" />
<glyph unicode="&#xf1;" horiz-adv-x="755" d="M96 0v1067h201v-117q113 131 227 131q140 0 140 -188v-893h-199v805q0 47 -10.5 65.5t-42.5 18.5q-20 0 -52.5 -21t-62.5 -59v-809h-201zM137 1176v16q0 87 42.5 136.5t115.5 49.5q45 0 107.5 -30.5t84.5 -30.5q24 0 38 14.5t14 40.5v8h106v-16q0 -87 -42.5 -136.5 t-115.5 -49.5q-45 0 -107.5 30.5t-84.5 30.5q-24 0 -37.5 -14.5t-13.5 -40.5v-8h-107z" />
<glyph unicode="&#xf2;" horiz-adv-x="727" d="M76 270v553q0 123 80 197t215 74q123 0 201.5 -77t78.5 -200v-551q0 -137 -77.5 -215t-211.5 -78q-128 0 -207 79t-79 218zM131 1389h252l98 -222h-162zM281 250q0 -44 21.5 -68t59.5 -24q39 0 63 24.5t24 67.5v581q0 34 -24 56t-63 22q-36 0 -58.5 -21.5t-22.5 -56.5 v-581z" />
<glyph unicode="&#xf3;" horiz-adv-x="727" d="M76 270v553q0 123 80 197t215 74q123 0 201.5 -77t78.5 -200v-551q0 -137 -77.5 -215t-211.5 -78q-128 0 -207 79t-79 218zM250 1167l96 222h254l-188 -222h-162zM281 250q0 -44 21.5 -68t59.5 -24q39 0 63 24.5t24 67.5v581q0 34 -24 56t-63 22q-36 0 -58.5 -21.5 t-22.5 -56.5v-581z" />
<glyph unicode="&#xf4;" horiz-adv-x="727" d="M76 270v553q0 123 80 197t215 74q123 0 201.5 -77t78.5 -200v-551q0 -137 -77.5 -215t-211.5 -78q-128 0 -207 79t-79 218zM113 1167l153 222h197l153 -222h-161l-90 109l-91 -109h-161zM281 250q0 -44 21.5 -68t59.5 -24q39 0 63 24.5t24 67.5v581q0 34 -24 56t-63 22 q-36 0 -58.5 -21.5t-22.5 -56.5v-581z" />
<glyph unicode="&#xf5;" horiz-adv-x="727" d="M76 270v553q0 123 80 197t215 74q123 0 201.5 -77t78.5 -200v-551q0 -137 -77.5 -215t-211.5 -78q-128 0 -207 79t-79 218zM111 1176v16q0 87 42 136.5t115 49.5q45 0 108 -30.5t85 -30.5q24 0 37.5 14.5t13.5 40.5v8h106v-16q0 -87 -42 -136.5t-115 -49.5 q-45 0 -108 30.5t-85 30.5q-24 0 -37.5 -14.5t-13.5 -40.5v-8h-106zM281 250q0 -44 21.5 -68t59.5 -24q39 0 63 24.5t24 67.5v581q0 34 -24 56t-63 22q-36 0 -58.5 -21.5t-22.5 -56.5v-581z" />
<glyph unicode="&#xf6;" horiz-adv-x="727" d="M76 270v553q0 123 80 197t215 74q123 0 201.5 -77t78.5 -200v-551q0 -137 -77.5 -215t-211.5 -78q-128 0 -207 79t-79 218zM137 1178v200h182v-200h-182zM281 250q0 -44 21.5 -68t59.5 -24q39 0 63 24.5t24 67.5v581q0 34 -24 56t-63 22q-36 0 -58.5 -21.5t-22.5 -56.5 v-581zM408 1178v200h184v-200h-184z" />
<glyph unicode="&#xf7;" horiz-adv-x="1705" d="M254 528v166h1198v-166h-1198zM717 229q0 57 40.5 97.5t96.5 40.5q57 0 97 -40.5t40 -97.5q0 -56 -39.5 -95.5t-97.5 -39.5t-97.5 39t-39.5 96zM717 989q0 57 40.5 98t96.5 41q57 0 97 -41t40 -98q0 -56 -39.5 -95.5t-97.5 -39.5t-97.5 39t-39.5 96z" />
<glyph unicode="&#xf8;" horiz-adv-x="727" d="M43 -47l68 158q-35 51 -35 139v573q0 123 80 197t215 74q85 0 147 -37l19 39h139l-60 -140q35 -51 35 -139v-571q0 -124 -79.5 -198.5t-213.5 -74.5q-84 0 -149 39l-27 -59h-139zM274 465l172 401q-16 54 -81 54q-37 0 -64 -23.5t-27 -58.5v-373zM283 201q15 -51 82 -51 q37 0 62.5 22t25.5 57v373z" />
<glyph unicode="&#xf9;" horiz-adv-x="755" d="M92 174v893h199v-819q0 -38 12 -55t41 -17q20 0 53.5 21t63.5 59v811h198v-1067h-198v117q-115 -133 -230 -133q-139 0 -139 190zM145 1389h252l99 -222h-162z" />
<glyph unicode="&#xfa;" horiz-adv-x="755" d="M92 174v893h199v-819q0 -38 12 -55t41 -17q20 0 53.5 21t63.5 59v811h198v-1067h-198v117q-115 -133 -230 -133q-139 0 -139 190zM264 1167l96 222h254l-188 -222h-162z" />
<glyph unicode="&#xfb;" horiz-adv-x="755" d="M92 174v893h199v-819q0 -38 12 -55t41 -17q20 0 53.5 21t63.5 59v811h198v-1067h-198v117q-115 -133 -230 -133q-139 0 -139 190zM127 1167l154 222h196l154 -222h-162l-90 109l-90 -109h-162z" />
<glyph unicode="&#xfc;" horiz-adv-x="755" d="M92 174v893h199v-819q0 -38 12 -55t41 -17q20 0 53.5 21t63.5 59v811h198v-1067h-198v117q-115 -133 -230 -133q-139 0 -139 190zM152 1178v200h182v-200h-182zM422 1178v200h184v-200h-184z" />
<glyph unicode="&#xfd;" horiz-adv-x="653" d="M18 1067h187l123 -684h8l100 684h199l-225 -1141q-28 -140 -94.5 -201t-196.5 -61q-43 0 -80 2v191h37q83 0 119.5 37t42.5 131zM213 1167l96 222h254l-188 -222h-162z" />
<glyph unicode="&#xfe;" horiz-adv-x="739" d="M96 -336v1782h201v-463q76 98 188 98q86 0 133.5 -60t47.5 -177v-590q0 -132 -49.5 -200t-143.5 -68q-95 0 -176 100v-422h-201zM297 199q45 -45 82 -45q82 0 82 112v551q0 48 -16.5 71t-53.5 23q-50 0 -94 -47v-665z" />
<glyph unicode="&#xff;" horiz-adv-x="653" d="M18 1067h187l123 -684h8l100 684h199l-225 -1141q-28 -140 -94.5 -201t-196.5 -61q-43 0 -80 2v191h37q83 0 119.5 37t42.5 131zM100 1178v200h183v-200h-183zM371 1178v200h184v-200h-184z" />
<glyph unicode="&#x152;" horiz-adv-x="1187" d="M88 371v741q0 170 92.5 267.5t257.5 97.5q67 0 146 -31h542v-209h-358v-379h260v-209h-260v-432h358v-217h-542q-85 -31 -154 -31q-165 0 -253.5 102.5t-88.5 299.5zM315 305q0 -64 33 -100.5t86 -36.5q52 0 81.5 35t29.5 100v858q0 51 -31.5 83t-83.5 32 q-50 0 -82.5 -32t-32.5 -83v-856z" />
<glyph unicode="&#x153;" horiz-adv-x="1099" d="M76 270v553q0 123 80 197t215 74q107 0 186 -64q92 64 191 64q129 0 205.5 -81t76.5 -233v-272h-379v-201q0 -79 19 -114t69 -35q57 0 72.5 33t15.5 116v74h203v-80q0 -163 -74 -245.5t-213 -82.5q-112 0 -186 62q-75 -62 -195 -62q-128 0 -207 79t-79 218zM281 250 q0 -43 23 -67.5t58 -24.5q40 0 63.5 24t23.5 68v581q0 34 -24 56t-63 22q-36 0 -58.5 -21.5t-22.5 -56.5v-581zM651 674h176v108q0 64 -21 95.5t-67 31.5q-48 0 -68 -31t-20 -96v-108z" />
<glyph unicode="&#x178;" horiz-adv-x="702" d="M-25 1446h226l145 -578h14l138 578h227l-260 -846v-600h-223v573zM125 1530v201h182v-201h-182zM395 1530v201h185v-201h-185z" />
<glyph unicode="&#x2c6;" horiz-adv-x="1024" d="M260 1167l154 222h196l154 -222h-162l-90 109l-90 -109h-162z" />
<glyph unicode="&#x2dc;" horiz-adv-x="1024" d="M258 1176v16q0 87 42.5 136.5t115.5 49.5q45 0 107.5 -30.5t84.5 -30.5q24 0 37.5 14.5t13.5 40.5v8h107v-16q0 -87 -42.5 -136.5t-115.5 -49.5q-45 0 -107.5 30.5t-84.5 30.5q-24 0 -37.5 -14.5t-13.5 -40.5v-8h-107z" />
<glyph unicode="&#x2000;" horiz-adv-x="924" />
<glyph unicode="&#x2001;" horiz-adv-x="1849" />
<glyph unicode="&#x2002;" horiz-adv-x="924" />
<glyph unicode="&#x2003;" horiz-adv-x="1849" />
<glyph unicode="&#x2004;" horiz-adv-x="616" />
<glyph unicode="&#x2005;" horiz-adv-x="462" />
<glyph unicode="&#x2006;" horiz-adv-x="308" />
<glyph unicode="&#x2007;" horiz-adv-x="308" />
<glyph unicode="&#x2008;" horiz-adv-x="231" />
<glyph unicode="&#x2009;" horiz-adv-x="369" />
<glyph unicode="&#x200a;" horiz-adv-x="102" />
<glyph unicode="&#x2010;" horiz-adv-x="634" d="M80 457v151h475v-151h-475z" />
<glyph unicode="&#x2011;" horiz-adv-x="634" d="M80 457v151h475v-151h-475z" />
<glyph unicode="&#x2012;" horiz-adv-x="634" d="M80 457v151h475v-151h-475z" />
<glyph unicode="&#x2013;" horiz-adv-x="1024" d="M0 467v133h1024v-133h-1024z" />
<glyph unicode="&#x2014;" horiz-adv-x="2048" d="M0 467v133h2048v-133h-2048z" />
<glyph unicode="&#x2018;" horiz-adv-x="440" d="M115 963v227l112 256h101l-76 -256h76v-227h-213z" />
<glyph unicode="&#x2019;" horiz-adv-x="440" d="M115 963l73 256h-73v227h213v-227l-115 -256h-98z" />
<glyph unicode="&#x201a;" horiz-adv-x="440" d="M115 0v227h213v-227l-115 -256h-98l73 256h-73z" />
<glyph unicode="&#x201c;" horiz-adv-x="739" d="M115 963v227l112 256h101l-76 -256h76v-227h-213zM412 963v227l114 256h101l-76 -256h76v-227h-215z" />
<glyph unicode="&#x201d;" horiz-adv-x="739" d="M115 963l73 256h-73v227h213v-227l-115 -256h-98zM412 963l75 256h-75v227h215v-227l-115 -256h-100z" />
<glyph unicode="&#x201e;" horiz-adv-x="739" d="M115 0v227h213v-227l-115 -256h-98l73 256h-73zM412 0v227h215v-227l-115 -256h-100l75 256h-75z" />
<glyph unicode="&#x2022;" horiz-adv-x="1208" d="M307 762q0 123 87 209t210 86q122 0 208.5 -86t86.5 -209q0 -122 -87 -209.5t-210 -87.5t-209 87t-86 210z" />
<glyph unicode="&#x2026;" horiz-adv-x="2048" d="M236 0v227h213v-227h-213zM918 0v227h212v-227h-212zM1602 0v227h213v-227h-213z" />
<glyph unicode="&#x202f;" horiz-adv-x="369" />
<glyph unicode="&#x2039;" horiz-adv-x="473" d="M76 530l147 318h172l-139 -318l139 -315h-172z" />
<glyph unicode="&#x203a;" horiz-adv-x="473" d="M76 215l139 315l-139 318h172l147 -318l-147 -315h-172z" />
<glyph unicode="&#x205f;" horiz-adv-x="462" />
<glyph unicode="&#x20ac;" horiz-adv-x="831" d="M-18 788l38 91h86v233q0 171 90.5 268t249.5 97q149 0 237.5 -99t88.5 -272v-121h-217v170q0 51 -31.5 83t-83.5 32q-48 0 -81 -31.5t-33 -81.5v-278h284l-41 -91h-243v-133h184l-39 -90h-145v-256q0 -62 33 -98.5t81 -36.5q56 0 85.5 34.5t29.5 100.5v160h217v-104 q0 -191 -87.5 -293.5t-246.5 -102.5q-161 0 -246.5 102.5t-85.5 299.5v194h-102l41 90h61v133h-124z" />
<glyph unicode="&#x2122;" horiz-adv-x="1705" d="M225 1366v94h467v-94h-168v-448h-129v448h-170zM809 918v542h170l141 -360l133 360h170v-542h-114v428l-160 -428h-59l-166 428v-428h-115z" />
<glyph unicode="&#x25fc;" horiz-adv-x="1064" d="M0 0v1065h1065v-1065h-1065z" />
<glyph unicode="&#xfb01;" horiz-adv-x="841" d="M10 901v166h113v125q0 254 231 254q60 0 115 -16v-175q-50 11 -53 11q-51 0 -72.5 -21.5t-21.5 -68.5v-109h127v-166h-127v-901h-199v901h-113zM539 0v1067h198v-1067h-198zM539 1247v199h198v-199h-198z" />
<glyph unicode="&#xfb02;" horiz-adv-x="841" d="M10 901v166h113v125q0 254 231 254q60 0 115 -16v-175q-50 11 -53 11q-51 0 -72.5 -21.5t-21.5 -68.5v-109h127v-166h-127v-901h-199v901h-113zM539 0v1446h198v-1446h-198z" />
</font>
</defs>
</svg>
